<svg width="40" height="40" viewBox="0 0 40 40" fill="none" xmlns="http://www.w3.org/2000/svg">
    <g clip-path="url(#clip0)">
        <path d="M28.7243 26.0083C29.0535 26.0083 29.2181 25.8438 29.2181 25.5145L30.6996 22.387L26.4197 20.2471L25.1029 23.3746C24.9383 23.5392 24.9383 23.8685 25.1029 24.033L25.5968 24.5269C26.4198 24.8561 27.0782 25.1853 27.7366 25.8437C27.9012 26.0083 28.0659 26.0083 28.2305 26.0083C28.5597 26.173 28.5597 26.173 28.7243 26.0083Z" fill="#F2F2F2"/>
        <path d="M32.5104 24.0332C32.1812 23.8686 31.6873 24.1978 31.5228 24.527L29.712 28.4776C29.712 28.6422 29.5475 28.8069 29.712 28.9714C30.2059 31.4406 28.889 34.0743 27.5721 35.5558C26.2553 36.8726 23.9507 37.6957 21.4816 37.6957C19.177 37.6957 17.2017 36.8726 15.8849 35.5558C15.7203 35.3912 15.2265 34.8974 15.0618 34.239C14.8972 34.4035 14.7326 34.7328 14.4034 34.7328H6.173C5.67917 34.7328 5.34993 34.4035 5.34993 33.9097V22.387C5.34993 21.8932 5.67917 21.564 6.173 21.564H14.4035C14.8973 21.564 15.2265 21.8932 15.2265 22.387V32.922C15.5558 32.2636 16.0496 31.7697 16.708 31.6052C16.8726 31.6052 16.8726 31.6052 17.0373 31.4406C17.2019 31.276 17.5311 31.1113 17.8603 30.7822C18.0249 30.6176 18.0249 30.4529 18.0249 30.2883C18.0249 30.1238 18.0249 30.1238 18.1895 29.9591C18.3541 29.6299 18.3541 29.3007 18.5188 28.8068V28.6422C18.5188 28.4776 18.5188 28.313 18.5188 28.1484V22.5517C18.5188 22.0579 18.848 21.7286 19.3418 21.7286H24.4446L25.103 20.0825H6.00841C5.51459 20.0825 5.18534 19.7533 5.18534 19.2595V12.6751C5.18534 12.1813 5.51459 11.8521 6.00841 11.8521H28.0661C28.2306 11.8521 28.3953 11.8521 28.3953 12.0166L30.0414 8.23068C30.2059 8.0661 30.0414 7.73686 30.0414 7.40761C29.8768 7.24303 29.7121 7.07837 29.3829 7.07837H29.0537H4.36235C2.0578 7.07837 0.24707 8.8891 0.24707 11.1936V35.885C0.24707 38.1895 2.0578 40.0002 4.36227 40.0002H29.0536C31.3582 40.0002 33.1688 38.1894 33.1688 35.885V25.35C33.1688 24.527 32.8396 24.1978 32.5104 24.0332Z" fill="#F2F2F2"/>
        <path d="M20.9879 27.3251C20.0002 28.3127 19.6711 29.3004 19.5064 30.1234C19.3418 30.7819 19.1771 31.2758 18.6833 31.7695C17.6957 32.7572 17.2018 32.9218 17.2018 32.9218C16.8726 33.0864 16.708 33.2511 16.708 33.5802C16.708 33.9095 16.708 34.0741 16.8726 34.4033C18.0249 35.5556 19.5063 36.0494 21.317 36.0494C23.2924 36.0494 25.2677 35.391 26.2553 34.4033C27.9014 32.7572 28.889 29.3004 27.0784 27.4897C25.4322 25.679 22.7985 25.679 20.9879 27.3251Z" fill="#F2F2F2"/>
        <path d="M36.9547 0C35.8024 0 34.8148 0.65841 34.321 1.64606L27.0781 18.7654L31.358 20.9053L39.4238 3.95062C39.5884 3.62137 39.7531 3.12755 39.7531 2.6338C39.7531 1.15231 38.4362 0 36.9547 0V0Z" fill="#F2F2F2"/>
    </g>
    <defs>
        <clipPath id="clip0">
            <rect width="40" height="40" fill="white"/>
        </clipPath>
    </defs>
</svg>
