<svg width="30" height="30" viewBox="0 0 30 30" fill="none" xmlns="http://www.w3.org/2000/svg">
    <path d="M12.1109 15.0063L23.3338 3.78293C23.6429 3.47463 23.8129 3.06244 23.8129 2.62293C23.8129 2.18317 23.6429 1.77122 23.3338 1.46244L22.3504 0.479512C22.0419 0.170244 21.6295 0 21.1899 0C20.7504 0 20.3385 0.170244 20.0297 0.479512L6.66702 13.842C6.35702 14.1517 6.18726 14.5656 6.18848 15.0056C6.18726 15.4476 6.35678 15.861 6.66702 16.171L20.0173 29.5205C20.326 29.8298 20.738 30 21.1778 30C21.6173 30 22.0292 29.8298 22.3382 29.5205L23.3214 28.5376C23.9612 27.8978 23.9612 26.8563 23.3214 26.2168L12.1109 15.0063Z" fill="#8C8493"/>
</svg>
