<svg width="21" height="20" viewBox="0 0 21 20" fill="none" xmlns="http://www.w3.org/2000/svg">
<g clip-path="url(#clip0)">
<path d="M18.465 15.9161C18.4033 15.878 17.9387 15.568 17.4735 14.6303C16.6192 12.9084 16.4399 10.4827 16.4399 8.75098C16.4399 8.74344 16.4397 8.73598 16.4394 8.72848C16.4301 6.43984 14.9912 4.46695 12.932 3.58176V2.22797C12.932 0.999453 11.8843 0 10.5965 0H10.403C9.11517 0 8.06746 0.999453 8.06746 2.22797V3.58168C6.00142 4.46973 4.5596 6.4527 4.5596 8.75098C4.5596 10.4827 4.38028 12.9083 3.52597 14.6303C3.06081 15.568 2.59622 15.8779 2.53445 15.9161C2.27433 16.0308 2.14608 16.2956 2.20592 16.564C2.26634 16.8351 2.53236 17.022 2.82288 17.022H7.33242C7.35761 18.6681 8.7683 20 10.4998 20C12.2312 20 13.6419 18.6681 13.6671 17.022H18.1767C18.4671 17.022 18.7332 16.8351 18.7936 16.564C18.8534 16.2956 18.7252 16.0307 18.465 15.9161V15.9161ZM9.29797 2.22797C9.29797 1.64668 9.79369 1.17379 10.403 1.17379H10.5966C11.2059 1.17379 11.7016 1.64668 11.7016 2.22797V3.20129C11.3133 3.12484 10.9113 3.08461 10.4996 3.08461C10.0881 3.08461 9.68619 3.1248 9.29801 3.20117V2.22797H9.29797ZM10.4998 18.8262C9.44678 18.8262 8.58787 18.0209 8.56289 17.022H12.4366C12.4117 18.0208 11.5528 18.8262 10.4998 18.8262V18.8262ZM12.9771 15.8481C12.977 15.8481 4.225 15.8481 4.225 15.8481C4.33143 15.6902 4.43975 15.5113 4.54742 15.3091C5.372 13.7606 5.79011 11.5541 5.79011 8.75098C5.79011 6.27375 7.90278 4.2584 10.4996 4.2584C13.0963 4.2584 15.209 6.27375 15.209 8.75293C15.209 8.76016 15.2091 8.76734 15.2094 8.77453C15.2118 11.5664 15.6298 13.765 16.4521 15.3091C16.5598 15.5113 16.6682 15.6902 16.7745 15.8481H12.9771Z" fill="#F2F2F2"/>
</g>
<defs>
<clipPath id="clip0">
<rect width="21" height="20" fill="white"/>
</clipPath>
</defs>
</svg>

