<svg width="37" height="40" viewBox="0 0 37 40" fill="none" xmlns="http://www.w3.org/2000/svg">
    <g clip-path="url(#clip0)">
        <path d="M0 36.25C0 38.3203 1.73968 40 3.88393 40H32.3661C34.5103 40 36.25 38.3203 36.25 36.25V15H0V36.25ZM25.8929 20.9375C25.8929 20.4219 26.3298 20 26.8638 20H30.1004C30.6345 20 31.0714 20.4219 31.0714 20.9375V24.0625C31.0714 24.5781 30.6345 25 30.1004 25H26.8638C26.3298 25 25.8929 24.5781 25.8929 24.0625V20.9375ZM25.8929 30.9375C25.8929 30.4219 26.3298 30 26.8638 30H30.1004C30.6345 30 31.0714 30.4219 31.0714 30.9375V34.0625C31.0714 34.5781 30.6345 35 30.1004 35H26.8638C26.3298 35 25.8929 34.5781 25.8929 34.0625V30.9375ZM15.5357 20.9375C15.5357 20.4219 15.9727 20 16.5067 20H19.7433C20.2773 20 20.7143 20.4219 20.7143 20.9375V24.0625C20.7143 24.5781 20.2773 25 19.7433 25H16.5067C15.9727 25 15.5357 24.5781 15.5357 24.0625V20.9375ZM15.5357 30.9375C15.5357 30.4219 15.9727 30 16.5067 30H19.7433C20.2773 30 20.7143 30.4219 20.7143 30.9375V34.0625C20.7143 34.5781 20.2773 35 19.7433 35H16.5067C15.9727 35 15.5357 34.5781 15.5357 34.0625V30.9375ZM5.17857 20.9375C5.17857 20.4219 5.61551 20 6.14955 20H9.38616C9.9202 20 10.3571 20.4219 10.3571 20.9375V24.0625C10.3571 24.5781 9.9202 25 9.38616 25H6.14955C5.61551 25 5.17857 24.5781 5.17857 24.0625V20.9375ZM5.17857 30.9375C5.17857 30.4219 5.61551 30 6.14955 30H9.38616C9.9202 30 10.3571 30.4219 10.3571 30.9375V34.0625C10.3571 34.5781 9.9202 35 9.38616 35H6.14955C5.61551 35 5.17857 34.5781 5.17857 34.0625V30.9375ZM32.3661 5H28.4821V1.25C28.4821 0.5625 27.8996 0 27.1875 0H24.5982C23.8862 0 23.3036 0.5625 23.3036 1.25V5H12.9464V1.25C12.9464 0.5625 12.3638 0 11.6518 0H9.0625C8.35045 0 7.76786 0.5625 7.76786 1.25V5H3.88393C1.73968 5 0 6.67969 0 8.75V12.5H36.25V8.75C36.25 6.67969 34.5103 5 32.3661 5Z" fill="#FF6982"/>
    </g>
    <defs>
        <clipPath id="clip0">
            <rect width="36.25" height="40" fill="white"/>
        </clipPath>
    </defs>
</svg>
