<svg width="100" height="100" xmlns="http://www.w3.org/2000/svg">
 <title/>

 <g>
  <title>background</title>
  <rect fill="none" id="canvas_background" height="402" width="582" y="-1" x="-1"/>
 </g>
 <g>
  <title>Layer 1</title>
  <path fill="#ffffff" id="svg_1" d="m49.876971,11a39,39 0 1 0 39,39a39.05,39.05 0 0 0 -39,-39zm11.12,45.88a3,3 0 0 1 0,4.24a3,3 0 0 1 -4.24,0l-6.88,-6.88l-6.88,6.88a3,3 0 0 1 -4.24,0a3,3 0 0 1 0,-4.24l6.88,-6.88l-6.88,-6.88a3,3 0 0 1 4.24,-4.24l6.88,6.88l6.88,-6.88a3,3 0 0 1 4.24,4.24l-6.88,6.88l6.88,6.88z"/>
 </g>
</svg>