<svg width="48" height="48" xmlns="http://www.w3.org/2000/svg">

 <g>
  <title>background</title>
  <rect fill="none" id="canvas_background" height="402" width="582" y="-1" x="-1"/>
 </g>
 <g>
  <title>Layer 1</title>
  <path fill="#ffffff" id="svg_2" d="m24,47.000999c-0.173,0 -0.346001,-0.044998 -0.500999,-0.134998c-0.239,-0.138 -5.913,-3.447002 -11.678,-8.778c-7.844,-7.253002 -11.821,-14.420002 -11.821,-21.301001c0,-9.275001 6.279,-13.500001 12.113,-13.500001c4.499,0 9.53,2.572 11.887,8.229c2.357,-5.657 7.389,-8.229 11.887001,-8.229c5.834,0 12.112999,4.225 12.112999,13.500001c0,6.880999 -3.977001,14.047998 -11.820999,21.301001c-5.765001,5.330997 -11.439001,8.640999 -11.678001,8.778c-0.154999,0.09 -0.327999,0.134998 -0.500999,0.134998zm-11.887,-41.713999c-4.871,0 -10.113,3.599 -10.113,11.5c0,13.862999 18.674,25.996 22,28.046c3.323,-2.050999 22,-14.193001 22,-28.046c0,-7.901001 -5.242001,-11.5 -10.112999,-11.5c-4.473001,0 -9.580002,3.062 -10.905001,9.902999c-0.091,0.47 -0.503,0.81 -0.982,0.81s-0.891001,-0.34 -0.982,-0.81c-1.324999,-6.839999 -6.431999,-9.902999 -10.905,-9.902999z"/>
 </g>
</svg>