<svg width="20" height="20" viewBox="0 0 20 20" fill="none" xmlns="http://www.w3.org/2000/svg">
    <g clip-path="url(#clip0)">
        <path d="M9.99875 7.27246C8.4942 7.27246 7.27148 8.49517 7.27148 9.99973C7.27148 11.5043 8.4942 12.727 9.99875 12.727C11.5033 12.727 12.726 11.5043 12.726 9.99973C12.726 8.49517 11.5033 7.27246 9.99875 7.27246Z" fill="#F2F2F2"/>
        <path d="M10 3.18164C5.45455 3.18164 1.57274 6.00889 0 9.99983C1.57274 13.9907 5.45455 16.818 10 16.818C14.55 16.818 18.4273 13.9907 20 9.99983C18.4273 6.00889 14.55 3.18164 10 3.18164ZM10 14.5453C7.49093 14.5453 5.45455 12.5089 5.45455 9.99978C5.45455 7.49069 7.49093 5.45436 10 5.45436C12.5091 5.45436 14.5455 7.49073 14.5455 9.99983C14.5455 12.5089 12.5091 14.5453 10 14.5453Z" fill="#F2F2F2"/>
    </g>
    <defs>
        <clipPath id="clip0">
            <rect width="20" height="20" fill="white"/>
        </clipPath>
    </defs>
</svg>
