<svg width="20" height="20" viewBox="0 0 20 20" fill="none" xmlns="http://www.w3.org/2000/svg">
    <path d="M14.6552 0.862305C12.7253 0.862473 10.9454 1.90386 10 3.58641C9.05459 1.90386 7.27472 0.862473 5.34483 0.862305C2.39308 0.862305 0 3.60022 0 6.55196C0 13.9658 10 19.1382 10 19.1382C10 19.1382 20 13.9658 20 6.55196C20 3.60022 17.6069 0.862305 14.6552 0.862305Z" fill="#F2F2F2"/>
    <path d="M1.37931 6.55196C1.37931 3.82095 3.42891 1.27785 6.07303 0.911976C5.83176 0.878806 5.58846 0.862138 5.34482 0.862306C2.39308 0.862306 0 3.60022 0 6.55196C0 13.9658 9.99999 19.1382 9.99999 19.1382C9.99999 19.1382 10.2586 19.004 10.6896 18.7506C8.43042 17.4219 1.37931 12.7782 1.37931 6.55196Z" fill="#F2F2F2"/>
</svg>
