<svg width="16" height="18" viewBox="0 0 16 18" fill="none" xmlns="http://www.w3.org/2000/svg">
<g clip-path="url(#clip0)">
<path d="M6.48001 12.4741C6.75001 12.4957 7.02464 12.4003 7.24527 12.1897L7.31932 12.1609L4.97881 9.43026L4.95567 9.51666C4.77361 9.77406 4.69184 10.0945 4.71035 10.4095L3.8803 13.4425L6.48001 12.4741ZM14.9565 1.41486L14.1912 0.522061C13.7685 0.0288606 13.0819 0.0288606 12.6592 0.522061L11.917 1.38606L14.2144 4.06626L14.9565 3.20046C15.3808 2.70726 15.3808 1.90806 14.9565 1.41486ZM13.4244 4.98786L11.1271 2.30766L5.79035 8.53386L8.08921 11.2141L13.4244 4.98786ZM13.1513 16.5853H1.20344V2.64786H8.81898V1.42386H1.23738C0.638754 1.42386 0.154297 1.98906 0.154297 2.68746V16.5871C0.154297 17.2855 0.638754 17.8507 1.23738 17.8507H13.1513C13.75 17.8507 14.2344 17.2855 14.2344 16.5871V7.74006H13.1513V16.5853Z" fill="#F2F2F2"/>
</g>
<defs>
<clipPath id="clip0">
<rect width="15.4286" height="18" fill="white"/>
</clipPath>
</defs>
</svg>

