<svg width="26" height="26" xmlns="http://www.w3.org/2000/svg">

 <g>
  <title>background</title>
  <rect fill="none" id="canvas_background" height="402" width="582" y="-1" x="-1"/>
 </g>
 <g>
  <title>Layer 1</title>
  <path id="svg_2" fill="#ffffff" d="m13,1c-6.61719,0 -12,5.38281 -12,12s5.38281,12 12,12s12,-5.38281 12,-12s-5.38281,-12 -12,-12zm0,22.5c-5.79004,0 -10.5,-4.70996 -10.5,-10.5s4.70996,-10.5 10.5,-10.5s10.5,4.70996 10.5,10.5s-4.70996,10.5 -10.5,10.5z"/>
  <path id="svg_3" fill="#ffffff" d="m13.27148,5.875l-3.0498,0c-0.41406,0 -0.75,0.33594 -0.75,0.75l0,5.625l-0.91016,0c-0.41406,0 -0.75,0.33594 -0.75,0.75s0.33594,0.75 0.75,0.75l0.91016,0l0,1l-0.91016,0c-0.41406,0 -0.75,0.33594 -0.75,0.75s0.33594,0.75 0.75,0.75l0.91016,0l0,3.125c0,0.41406 0.33594,0.75 0.75,0.75s0.75,-0.33594 0.75,-0.75l0,-3.125l2.8584,0c0.41406,0 0.75,-0.33594 0.75,-0.75s-0.33594,-0.75 -0.75,-0.75l-2.8584,0l0,-1l2.2998,0c2.71094,0 4.917,-1.7666 4.917,-3.9375s-2.20606,-3.9375 -4.917,-3.9375zm0,6.375l-2.2998,0l0,-4.875l2.2998,0c1.88379,0 3.417,1.09375 3.417,2.4375s-1.53321,2.4375 -3.417,2.4375z"/>
 </g>
</svg>