<svg width="40" height="40" viewBox="0 0 40 40" fill="none" xmlns="http://www.w3.org/2000/svg">
    <path d="M37.5877 20.8847C36.945 20.8078 36.3618 21.2668 36.2852 21.9095C35.3224 29.9789 28.4499 36.0643 20.2994 36.0643C16.4341 36.0643 12.697 34.6761 9.77676 32.155C7.35828 30.0677 5.62521 27.3193 4.78202 24.2816L6.18184 25.0506C6.74916 25.3619 7.46173 25.155 7.77301 24.5877C8.08459 24.0204 7.87738 23.3078 7.31006 22.9965L3.71423 21.0212C3.14722 20.7099 2.43556 20.9165 2.12337 21.4829L0.145551 25.0745C-0.16664 25.6415 0.0399613 26.354 0.606665 26.6662C1.13034 26.9351 1.84047 26.7932 2.19844 26.2051L2.65864 25.3699C3.66815 28.6675 5.59836 31.6445 8.24511 33.9293C11.591 36.8175 15.8717 38.408 20.2994 38.408C29.6361 38.408 37.5089 31.4345 38.6124 22.1872C38.689 21.5445 38.2304 20.9613 37.5877 20.8847Z" fill="#FF6982"/>
    <path d="M39.291 11.5701C38.6972 11.3141 38.0075 11.5878 37.7511 12.1823L37.3828 13.0359C36.1383 9.9994 34.0723 7.29863 31.4414 5.30372C28.2142 2.85655 24.3614 1.56323 20.2993 1.56323C16.0437 1.56323 11.8912 3.04545 8.60725 5.73706C5.36847 8.39175 3.11142 12.0965 2.25205 16.1687C2.11839 16.802 2.52366 17.4236 3.15689 17.5573C3.23837 17.5747 3.31954 17.5826 3.3998 17.5826C3.94209 17.5826 4.42884 17.2042 4.54511 16.6527C5.29492 13.1002 7.26511 9.86756 10.0928 7.54978C12.959 5.20057 16.5838 3.90664 20.2993 3.90664C23.8457 3.90664 27.209 5.03547 30.0251 7.17106C32.4466 9.00728 34.3189 11.5268 35.3815 14.3514L33.8974 13.713C33.303 13.4576 32.6136 13.7319 32.3578 14.3264C32.1021 14.9209 32.3768 15.6103 32.9712 15.866L36.7407 17.4871C36.8918 17.5521 37.0486 17.5829 37.2034 17.5829C37.6571 17.5829 38.0887 17.3177 38.28 16.8749L39.9032 13.1103C40.1595 12.5158 39.8855 11.8265 39.291 11.5701Z" fill="#FF6982"/>
    <path d="M16.1932 13.9118L12.7279 19.5556C12.6599 19.6929 12.5216 19.7729 12.3779 19.7729C12.3196 19.7729 12.2604 19.7598 12.2049 19.732C12.0035 19.6322 11.7898 19.5849 11.5793 19.5849C11.0596 19.5849 10.56 19.873 10.3134 20.3701L10.105 20.7906C9.75893 21.4892 10.0449 22.336 10.7431 22.6821L23.6018 29.0535C23.8032 29.1533 24.0168 29.2006 24.2274 29.2006C24.7471 29.2006 25.2467 28.9125 25.4933 28.4153L25.7017 27.9948C26.0478 27.2963 25.7618 26.4494 25.0636 26.1034C24.8704 26.0075 24.7914 25.7735 24.8869 25.5803L27.2785 19.4045C28.4388 16.4087 27.1226 13.0225 24.2442 11.5961C23.3607 11.1585 22.4193 10.9495 21.4903 10.9495C19.3926 10.9495 17.3583 12.0142 16.1932 13.9118Z" fill="#FF6982"/>
    <path d="M18.545 30.795C19.4587 31.2034 20.3117 30.8106 20.7624 30.2625L17.6252 28.7083C17.3908 29.5194 17.7616 30.4069 18.545 30.795Z" fill="#FF6982"/>
    <path d="M26.6998 10.3796C26.7124 10.357 26.7252 10.3344 26.7368 10.3113C27.1445 9.4882 26.8079 8.49058 25.9851 8.08286C25.0165 7.72947 24.1409 7.96781 23.7567 8.83451C23.7451 8.85831 23.736 8.88242 23.7256 8.90623C24.2627 9.05179 24.7861 9.24894 25.2847 9.49613C25.7886 9.74576 26.2613 10.0427 26.6998 10.3796Z" fill="#FF6982"/>
</svg>
