<svg width="33" height="32" viewBox="0 0 33 32" fill="none" xmlns="http://www.w3.org/2000/svg">
    <path d="M15.0866 29.4457H3.89236C3.47644 29.4457 3.09746 29.2588 2.85241 28.9328C2.60729 28.6067 2.53981 28.1993 2.66717 27.8151C3.93896 23.981 7.81749 21.3032 12.099 21.3032C14.0912 21.3032 16.0043 21.8849 17.6315 22.9854C18.2144 23.3796 19.0163 23.2411 19.423 22.6759C19.8294 22.1107 19.6865 21.333 19.1037 20.9387C18.2982 20.3939 17.4376 19.9495 16.5374 19.6102C17.7351 18.5542 18.5297 17.0755 18.6677 15.4197C20.4838 13.7042 22.8643 12.7642 25.4162 12.7642C27.4084 12.7642 29.3215 13.3459 30.9488 14.4464C31.5316 14.8406 32.3336 14.7021 32.7402 14.1369C33.1467 13.5717 33.0038 12.794 32.4209 12.3997C31.6154 11.8549 30.7548 11.4105 29.8546 11.0712C31.1758 9.90631 32.0064 8.22706 32.0064 6.36319C32.0065 2.85456 29.0627 0 25.4444 0C21.826 0 18.8823 2.85456 18.8823 6.36331C18.8823 8.21963 19.7063 9.89287 21.0182 11.0572C20.8387 11.1242 20.6605 11.1954 20.4836 11.2709C19.6784 11.6145 18.9212 12.0363 18.2173 12.5324C17.2461 10.1939 14.8821 8.53906 12.1271 8.53906C8.50869 8.53906 5.56498 11.3936 5.56498 14.9024C5.56498 16.7533 6.38418 18.4221 7.68936 19.586C4.19935 20.8542 1.36954 23.5779 0.217502 27.0513C-0.164576 28.2032 0.0378064 29.4247 0.77283 30.4027C1.50772 31.3805 2.64468 31.9413 3.89243 31.9413H15.0866C15.7973 31.9413 16.3733 31.3827 16.3733 30.6936C16.3733 30.0046 15.7972 29.4457 15.0866 29.4457ZM25.4445 2.49537C27.6439 2.49537 29.4332 4.2305 29.4332 6.36325C29.4332 8.496 27.6439 10.2311 25.4445 10.2311C23.2451 10.2311 21.4557 8.496 21.4557 6.36325C21.4557 4.2305 23.2451 2.49537 25.4445 2.49537ZM12.1272 11.0344C14.3265 11.0344 16.1159 12.7695 16.1159 14.9023C16.1159 17.035 14.3265 18.7701 12.1272 18.7701C9.92775 18.7701 8.1384 17.035 8.1384 14.9023C8.1384 12.7695 9.92775 11.0344 12.1272 11.0344Z" fill="white"/>
    <path d="M32.4339 20.38C31.8561 19.9789 31.0523 20.1079 30.6387 20.6683L24.2965 29.2587C24.1233 29.4535 23.9062 29.4955 23.79 29.503C23.6703 29.511 23.4379 29.4959 23.2386 29.312L19.1327 25.489C18.62 25.0116 17.8054 25.0278 17.3135 25.5248C16.8212 26.0218 16.8378 26.8116 17.3503 27.2889L21.4603 31.1156C22.0758 31.6838 22.8975 32 23.7428 32C23.8155 32 23.8883 31.9976 23.9611 31.9929C24.8821 31.9334 25.7419 31.4991 26.3201 30.8015C26.3351 30.7835 26.3494 30.765 26.3634 30.7462L32.7313 22.1208C33.1448 21.5605 33.0118 20.7811 32.4339 20.38Z" fill="white"/>
</svg>
