<?xml version="1.0" ?><!DOCTYPE svg  PUBLIC '-//W3C//DTD SVG 1.1//EN'  'http://www.w3.org/Graphics/SVG/1.1/DTD/svg11.dtd'><svg height="512px" style="enable-background:new 0 0 512 512;" version="1.1" viewBox="0 0 512 512" width="512px" xml:space="preserve" xmlns="http://www.w3.org/2000/svg" xmlns:xlink="http://www.w3.org/1999/xlink"><g id="_x37_04_-video__x2C__media__x2C__mp4__x2C_"><g><g><path d="M486.25,436.599H26.7c-3.705,0-6.708-3.003-6.708-6.708V83.063c0-3.705,3.003-6.708,6.708-6.708h459.55     c3.705,0,6.708,3.003,6.708,6.708v346.828C492.958,433.596,489.955,436.599,486.25,436.599z M33.408,423.183h446.134V89.771     H33.408V423.183z"/></g><g><path d="M154.69,378.506c-1.167,0-2.335-0.304-3.378-0.912c-2.062-1.202-3.33-3.409-3.33-5.796V141.155     c0-2.387,1.269-4.594,3.331-5.796c2.061-1.203,4.607-1.218,6.685-0.041l203.569,115.35c2.103,1.191,3.402,3.421,3.401,5.838     c0,2.416-1.3,4.646-3.402,5.836l-203.57,115.293C156.97,378.216,155.83,378.506,154.69,378.506z M161.398,152.667v207.622     l183.251-103.785L161.398,152.667z"/></g></g></g><g id="Layer_1"/></svg>