<?xml version="1.0" encoding="iso-8859-1"?>
<!-- Generator: Adobe Illustrator 19.0.0, SVG Export Plug-In . SVG Version: 6.00 Build 0)  -->
<svg version="1.1" id="Layer_1" xmlns="http://www.w3.org/2000/svg" xmlns:xlink="http://www.w3.org/1999/xlink" x="0px" y="0px"
	 viewBox="0 0 512 512" style="enable-background:new 0 0 512 512;" xml:space="preserve">
<path style="fill:#EA163F;" d="M359.217,10.199h-69.846c-70.763,0-142.167,52.255-142.167,168.995
	c0,60.468,25.628,107.564,72.606,134.347l-85.983,155.633c-4.078,7.36-4.184,15.702-0.286,22.314
	c3.805,6.457,10.763,10.312,18.605,10.312h43.496c9.881,0,17.585-4.776,21.281-13.143l80.62-157.689h5.884v151.179
	c0,10.654,8.991,19.653,19.631,19.653h37.998c11.934,0,20.265-8.333,20.265-20.263V31.71
	C381.322,19.045,372.233,10.199,359.217,10.199z M303.426,260.922h-10.379c-40.245,0-64.27-32.852-64.27-87.877
	c0-68.42,30.35-92.797,58.756-92.797h15.893V260.922z"/>
<g>
	<path style="fill:#9C0E2B;" d="M361.056,512h-37.998c-16.17,0-29.832-13.671-29.832-29.853V361.816l-67.103,131.252
		C220.755,504.929,209.385,512,195.642,512h-43.496c-11.495,0-21.734-5.732-27.392-15.333c-5.751-9.758-5.694-21.882,0.151-32.434
		l81.264-147.09c-44.696-29.34-69.164-77.926-69.164-137.949c0-56.422,16.393-103.228,47.408-135.358
		C211.701,15.568,248.975,0,289.371,0h69.845c8.967,0,17.152,3.16,23.047,8.897c5.97,5.809,9.257,13.913,9.256,22.815v449.827
		C391.52,499.189,378.708,512,361.056,512z M297.542,320.77h5.884c5.633,0,10.199,4.567,10.199,10.199v151.178
		c0,5.036,4.408,9.455,9.433,9.455h37.998c6.302,0,10.066-3.761,10.066-10.064V31.71c0-3.398-1.066-6.232-3.084-8.196
		c-2.095-2.038-5.144-3.116-8.82-3.116h-69.845c-65.687,0-131.967,49.101-131.967,158.794c0,56.933,23.327,100.327,67.459,125.487
		c4.847,2.764,6.574,8.909,3.876,13.792l-85.984,155.634c-2.314,4.177-2.471,8.734-0.426,12.203
		c1.983,3.364,5.562,5.291,9.819,5.291h43.496c5.86,0,9.881-2.376,11.95-7.064c0.078-0.176,0.161-0.351,0.249-0.522l80.62-157.689
		C290.205,322.916,293.713,320.77,297.542,320.77z M303.426,271.121h-10.379c-23.133,0-42.31-9.503-55.46-27.482
		c-12.436-17.005-19.01-41.416-19.01-70.595c0-33.754,7.001-60.073,20.806-78.229c12.145-15.971,29.245-24.767,48.148-24.767h15.894
		c5.633,0,10.199,4.567,10.199,10.199v180.675C313.626,266.555,309.059,271.121,303.426,271.121z M287.532,90.448
		c-23.473,0-48.556,21.698-48.556,82.597c0,49.365,19.709,77.678,54.072,77.678h0.18V90.448H287.532z"/>
	<path style="fill:#9C0E2B;" d="M351.879,345.753c-5.633,0-10.199-4.567-10.199-10.199v-4.08c0-5.632,4.566-10.199,10.199-10.199
		s10.199,4.567,10.199,10.199v4.08C362.078,341.186,357.512,345.753,351.879,345.753z"/>
	<path style="fill:#9C0E2B;" d="M351.879,482.422c-5.633,0-10.199-4.567-10.199-10.199V371.251c0-5.632,4.566-10.199,10.199-10.199
		s10.199,4.567,10.199,10.199v100.972C362.078,477.855,357.512,482.422,351.879,482.422z"/>
</g>
<g>
</g>
<g>
</g>
<g>
</g>
<g>
</g>
<g>
</g>
<g>
</g>
<g>
</g>
<g>
</g>
<g>
</g>
<g>
</g>
<g>
</g>
<g>
</g>
<g>
</g>
<g>
</g>
<g>
</g>
</svg>
